# xmcd
#
# Track frame offsets: 
#        150
#        5925
#        13575
#        28575
#        37725
#        42937
#        52350
#        60475
#        72000
#        83100
#        90187
#        95475
#        110425
#        120162
#        129862
#        144875
#        157975
#        169612
#        181650
#        188750
#        198715
#        209550
#        221250
#        233112
#        237150
#        242587
#        246042
#        252500
#        255450
#        260687
#        266700
#        276000
#        287825
#        295375
#        300600
#        314587
#
# Disc length: 4236 seconds
#
# Revision: 0
# Processed by: cddbd v1.5.1PL2 Copyright (c) Steve Scherf et al.
# Submitted via: ExactAudioCopy v0.95a5
#
DISCID=f8108a24
DTITLE=粤语儿歌 - 儿歌
DYEAR=2001
DGENRE=Bluegrass
TTITLE0=拜年恭喜
TTITLE1=欢欢喜喜过新年
TTITLE2=龙珠二世
TTITLE3=叮当
TTITLE4=忍者小精灵
TTITLE5=蓝精灵
TTITLE6=公主与小矮人
TTITLE7=雪姑七友
TTITLE8=我系小忌廉
TTITLE9=咖啡猫与我
TTITLE10=IQ博士
TTITLE11=龙猫
TTITLE12=Q太郎
TTITLE13=个钟嘀嗒跳
TTITLE14=寻晚公鸡点样叫
TTITLE15=小宇宙
TTITLE16=肥皂泡
TTITLE17=醒目仔时间
TTITLE18=机灵小和尚
TTITLE19=问句星星亮也晶
TTITLE20=小朋友时间
TTITLE21=想飞的小家伙
TTITLE22=读书的原因
TTITLE23=做野卑心机
TTITLE24=祝福你
TTITLE25=心想事成
TTITLE26=世界是个大怀抱
TTITLE27=愿你
TTITLE28=爸爸的笑容
TTITLE29=为你祝新岁
TTITLE30=开心常欢笑
TTITLE31=同心合力
TTITLE32=齐齐做蛋糕
TTITLE33=同唱一曲春光好
TTITLE34=光阴好
TTITLE35=太平年
EXTD=
EXTT0=
EXTT1=
EXTT2=
EXTT3=
EXTT4=
EXTT5=
EXTT6=
EXTT7=
EXTT8=
EXTT9=
EXTT10=
EXTT11=
EXTT12=
EXTT13=
EXTT14=
EXTT15=
EXTT16=
EXTT17=
EXTT18=
EXTT19=
EXTT20=
EXTT21=
EXTT22=
EXTT23=
EXTT24=
EXTT25=
EXTT26=
EXTT27=
EXTT28=
EXTT29=
EXTT30=
EXTT31=
EXTT32=
EXTT33=
EXTT34=
EXTT35=
PLAYORDER=
